# xmcd
#
# Track frame offsets:
# 183
# 16085
# 30058
# 45403
# 60718
# 81278
# 99483
#
# Disc length: 1548 seconds
#
#
# Revision: 0
# Processed by: cddbd v1.5PL3 Copyright (c) Steve Scherf et al.
# Submitted via: FreeRIP 2.60 
#
DISCID=41060a07
DTITLE=Terrorvision - Prime Time
DYEAR=1900
DGENRE=
TTITLE0=New Policy One
TTITLE1=My House
TTITLE2=Psycho Killer
TTITLE3=Killing Time
TTITLE4=American TV
TTITLE5=Hole For A Soul
TTITLE6=Problem Solved
EXTD=
EXTT0=
EXTT1=
EXTT2=
EXTT3=
EXTT4=
EXTT5=
EXTT6=
PLAYORDER=
